REM DIRINDEX 1\2,1\3,1\4
REM DIRNAME cjc151,folder01,folder02,folder03
TITLE ""
FILE "018 018_TOEFL_3900.mp3" MP3
  TRACK 01 AUDIO
    TITLE "2:cjc151_0754"
    INDEX 01 00:00:00
  TRACK 02 AUDIO
    TITLE "0:"
    INDEX 01 00:01:19
  TRACK 03 AUDIO
    TITLE "3:cjc151_0755"
    INDEX 01 00:02:73
  TRACK 04 AUDIO
    TITLE "0:"
    INDEX 01 00:06:49
  TRACK 05 AUDIO
    TITLE "2:cjc151_0756"
    INDEX 01 00:08:30
  TRACK 06 AUDIO
    TITLE "0:"
    INDEX 01 00:09:38
  TRACK 07 AUDIO
    TITLE "3:cjc151_0757"
    INDEX 01 00:11:17
  TRACK 08 AUDIO
    TITLE "0:"
    INDEX 01 00:15:70
  TRACK 09 AUDIO
    TITLE "2:cjc151_0758"
    INDEX 01 00:17:49
  TRACK 10 AUDIO
    TITLE "0:"
    INDEX 01 00:18:48
  TRACK 11 AUDIO
    TITLE "3:cjc151_0759"
    INDEX 01 00:20:28
  TRACK 12 AUDIO
    TITLE "0:"
    INDEX 01 00:24:16
  TRACK 13 AUDIO
    TITLE "2:cjc151_0760"
    INDEX 01 00:25:70
  TRACK 14 AUDIO
    TITLE "0:"
    INDEX 01 00:26:69
  TRACK 15 AUDIO
    TITLE "3:cjc151_0761"
    INDEX 01 00:28:51
  TRACK 16 AUDIO
    TITLE "0:"
    INDEX 01 00:32:43
  TRACK 17 AUDIO
    TITLE "2:cjc151_0762"
    INDEX 01 00:34:24
  TRACK 18 AUDIO
    TITLE "0:"
    INDEX 01 00:35:39
  TRACK 19 AUDIO
    TITLE "3:cjc151_0763"
    INDEX 01 00:37:18
  TRACK 20 AUDIO
    TITLE "0:"
    INDEX 01 00:41:34
  TRACK 21 AUDIO
    TITLE "2:cjc151_0764"
    INDEX 01 00:43:13
  TRACK 22 AUDIO
    TITLE "0:"
    INDEX 01 00:44:26
  TRACK 23 AUDIO
    TITLE "3:cjc151_0765"
    INDEX 01 00:46:06
  TRACK 24 AUDIO
    TITLE "0:"
    INDEX 01 00:49:41
  TRACK 25 AUDIO
    TITLE "2:cjc151_0766"
    INDEX 01 00:51:22
  TRACK 26 AUDIO
    TITLE "0:"
    INDEX 01 00:52:28
  TRACK 27 AUDIO
    TITLE "3:cjc151_0767"
    INDEX 01 00:54:11
  TRACK 28 AUDIO
    TITLE "0:"
    INDEX 01 00:58:38
  TRACK 29 AUDIO
    TITLE "2:cjc151_0768"
    INDEX 01 01:00:17
  TRACK 30 AUDIO
    TITLE "0:"
    INDEX 01 01:01:25
  TRACK 31 AUDIO
    TITLE "3:cjc151_0769"
    INDEX 01 01:03:08
  TRACK 32 AUDIO
    TITLE "0:"
    INDEX 01 01:06:51
  TRACK 33 AUDIO
    TITLE "2:cjc151_0770"
    INDEX 01 01:08:31
  TRACK 34 AUDIO
    TITLE "0:"
    INDEX 01 01:09:22
  TRACK 35 AUDIO
    TITLE "3:cjc151_0771"
    INDEX 01 01:11:02
  TRACK 36 AUDIO
    TITLE "0:"
    INDEX 01 01:14:51
  TRACK 37 AUDIO
    TITLE "2:cjc151_0772"
    INDEX 01 01:16:46
  TRACK 38 AUDIO
    TITLE "0:"
    INDEX 01 01:19:38
  TRACK 39 AUDIO
    TITLE "3:cjc151_0773"
    INDEX 01 01:21:20
  TRACK 40 AUDIO
    TITLE "0:"
    INDEX 01 01:24:69
  TRACK 41 AUDIO
    TITLE "2:cjc151_0774"
    INDEX 01 01:26:54
  TRACK 42 AUDIO
    TITLE "0:"
    INDEX 01 01:27:51
  TRACK 43 AUDIO
    TITLE "3:cjc151_0775"
    INDEX 01 01:29:31
  TRACK 44 AUDIO
    TITLE "0:"
    INDEX 01 01:34:08
  TRACK 45 AUDIO
    TITLE "2:cjc151_0776"
    INDEX 01 01:35:63
  TRACK 46 AUDIO
    TITLE "0:"
    INDEX 01 01:36:68
  TRACK 47 AUDIO
    TITLE "3:cjc151_0777"
    INDEX 01 01:38:47
  TRACK 48 AUDIO
    TITLE "0:"
    INDEX 01 01:41:32
  TRACK 49 AUDIO
    TITLE "2:cjc151_0778"
    INDEX 01 01:43:09
  TRACK 50 AUDIO
    TITLE "0:"
    INDEX 01 01:44:01
  TRACK 51 AUDIO
    TITLE "3:cjc151_0779"
    INDEX 01 01:45:55
  TRACK 52 AUDIO
    TITLE "0:"
    INDEX 01 01:48:65
  TRACK 53 AUDIO
    TITLE "2:cjc151_0780"
    INDEX 01 01:50:45
  TRACK 54 AUDIO
    TITLE "0:"
    INDEX 01 01:52:04
  TRACK 55 AUDIO
    TITLE "3:cjc151_0781"
    INDEX 01 01:53:57
  TRACK 56 AUDIO
    TITLE "0:"
    INDEX 01 01:57:41
  TRACK 57 AUDIO
    TITLE "2:cjc151_0782"
    INDEX 01 01:59:20
  TRACK 58 AUDIO
    TITLE "0:"
    INDEX 01 02:00:22
  TRACK 59 AUDIO
    TITLE "3:cjc151_0783"
    INDEX 01 02:01:72
  TRACK 60 AUDIO
    TITLE "0:"
    INDEX 01 02:05:25
  TRACK 61 AUDIO
    TITLE "2:cjc151_0784"
    INDEX 01 02:07:04
  TRACK 62 AUDIO
    TITLE "0:"
    INDEX 01 02:08:11
  TRACK 63 AUDIO
    TITLE "3:cjc151_0785"
    INDEX 01 02:09:68
  TRACK 64 AUDIO
    TITLE "0:"
    INDEX 01 02:14:22
  TRACK 65 AUDIO
    TITLE "2:cjc151_0786"
    INDEX 01 02:16:01
  TRACK 66 AUDIO
    TITLE "0:"
    INDEX 01 02:19:39
  TRACK 67 AUDIO
    TITLE "3:cjc151_0787"
    INDEX 01 02:21:14
  TRACK 68 AUDIO
    TITLE "0:"
    INDEX 01 02:25:35
  TRACK 69 AUDIO
    TITLE "2:cjc151_0788"
    INDEX 01 02:27:14
  TRACK 70 AUDIO
    TITLE "0:"
    INDEX 01 02:28:39
  TRACK 71 AUDIO
    TITLE "3:cjc151_0789"
    INDEX 01 02:30:21
  TRACK 72 AUDIO
    TITLE "0:"
    INDEX 01 02:34:48
  TRACK 73 AUDIO
    TITLE "2:cjc151_0790"
    INDEX 01 02:36:27
  TRACK 74 AUDIO
    TITLE "0:"
    INDEX 01 02:37:36
  TRACK 75 AUDIO
    TITLE "3:cjc151_0791"
    INDEX 01 02:39:12
  TRACK 76 AUDIO
    TITLE "0:"
    INDEX 01 02:42:73
  TRACK 77 AUDIO
    TITLE "2:cjc151_0792"
    INDEX 01 02:44:52
  TRACK 78 AUDIO
    TITLE "0:"
    INDEX 01 02:45:40
  TRACK 79 AUDIO
    TITLE "3:cjc151_0793"
    INDEX 01 02:47:21
  TRACK 80 AUDIO
    TITLE "0:"
    INDEX 01 02:50:45
  TRACK 81 AUDIO
    TITLE "2:cjc151_0794"
    INDEX 01 02:52:26
  TRACK 82 AUDIO
    TITLE "0:"
    INDEX 01 02:53:33
  TRACK 83 AUDIO
    TITLE "3:cjc151_0795"
    INDEX 01 02:55:13
  TRACK 84 AUDIO
    TITLE "0:"
    INDEX 01 02:59:15
  TRACK 85 AUDIO
    TITLE "2:cjc151_0796"
    INDEX 01 03:00:71
  TRACK 86 AUDIO
    TITLE "0:"
    INDEX 01 03:02:13
  TRACK 87 AUDIO
    TITLE "3:cjc151_0797"
    INDEX 01 03:03:67
  TRACK 88 AUDIO
    TITLE "0:"
    INDEX 01 03:07:12
